/* XPM */
static char *bas[] = {
/* columns rows colors chars-per-pixel */
"55 64 69 1 ",
"  c None",
". c #3D253B",
"X c #442B40",
"o c #553949",
"O c #563A4A",
"+ c #553B4C",
"@ c #583E4F",
"# c #5A4050",
"$ c #5B4050",
"% c #614655",
"& c #664A59",
"* c #69505E",
"= c #755964",
"- c #795C66",
"; c #7A5D68",
": c #8D676B",
"> c #936C6E",
", c #826770",
"< c #816871",
"1 c #826971",
"2 c #836971",
"3 c #866C75",
"4 c #886E76",
"5 c #8F7076",
"6 c #8D747B",
"7 c #997172",
"8 c #93767B",
"9 c #A17877",
"0 c #947B80",
"q c #A78180",
"w c #A38385",
"e c #A68587",
"r c #AD8684",
"t c #AF8886",
"y c #A4888A",
"u c #AE8E8E",
"i c #B08A87",
"p c #B38D8A",
"a c #B08F8F",
"s c #B6918D",
"d c #B8918E",
"f c #B49292",
"g c #BA9390",
"h c #B89594",
"j c #BE9894",
"k c #C3A39F",
"l c #CCA8A3",
"z c #CFACA7",
"x c #D0AEA8",
"c c #D1AFA9",
"v c #CEB4AE",
"b c #D3B1AA",
"n c #D4B2AC",
"m c #D5B3AD",
"M c #D6B5AE",
"N c #D2B8B1",
"B c #D9B9B2",
"V c #DABAB2",
"C c #DEBFB6",
"Z c #DDC2BA",
"A c #E0C3BA",
"S c #E1C3BA",
"D c #E2C5BB",
"F c #E3C6BD",
"G c #E5C8BF",
"H c #E7CAC0",
"J c #E9CEC3",
"K c #EACEC3",
"L c #EBD0C5",
/* pixels */
"              ...........................              ",
"              ...........................              ",
"              ...........................              ",
"              ...........................              ",
"             @;;;;2444444444444444442;;;;@             ",
"         ....%llllSLLLLLLLLLLLLLLLLLSllll%....         ",
"         ....%llllSLLLLLLLLLLLLLLLLLSllll%....         ",
"         ....%llllSLLLLLLLLLLLLLLLLLSllll%....         ",
"         ....%llllSLLLLLLLLLLLLLLLLLSllll%....         ",
"     ....ehhhkHHHHKLLLLLLLLLLLLLLLLLKHHHHkhhhe....     ",
"     ....flllnLLLLLLLLLLLLLLLLLLLLLLLLLLLnlllf....     ",
"     ....flllnLLLLLLLLLLLLLLLLLLLLLLLLLLLnlllf....     ",
"     ....flllnLLLLLLLLLLLLLLLLLLLLLLLLLLLnlllf....     ",
"     ....flllnLLLLLLLLLLLLLLLLLLLLLLLLLLLnlllf....     ",
"     ....flllnLLLLLLLLLLLLLLLLLLLLLLLLLLLnlllf....     ",
"     ....flllnLLLLLLLLLLLLLLLLLLLLLLLLLLLnlllf....     ",
"     ....flllnLLLLLLLLLLLLLLLLLLLLLLLLLLLnlllf....     ",
"     ....flllnLLLLLLLLLLLLLLLLLLLLLLLLLLLnlllf....     ",
"     ....flllnLLLLLLLLLLLLLLLLLLLLLLLLLLLnlllf....     ",
"     ....flllnLLLLLLLLLLLLLLLLLLLLLLLLLLLnlllf....     ",
"     ....flllnLLLLLLLLLLLLLLLLLLLLLLLLLLLnlllf....     ",
"     ....flllnLLLLLLLLLLLLLLLLLLLLLLLLLLLnlllf....     ",
"     ....flllnHHHHKLLLLLLLLLLLLLLLLLKHHHHnlllf....     ",
"     ....fllllllllSLLLLLLLLLLLLLLLLLSllllllllf....     ",
"     ....fllllllllSLLLLLLLLLLLLLLLLLSllllllllf....     ",
"     ....fllllllllSLLLLLLLLLLLLLLLLLSllllllllf....     ",
"     ....fllllllllSLLLLLLLLLLLLLLLLLSllllllllf....     ",
"         =;;;5llllnBBBBBBBBBBBBBBBBBnllll5;;;=         ",
"         ....%lllllllllllllllllllllllllll%....         ",
"         ....%lllllllllllllllllllllllllll%....         ",
"         ....%lllllllllllllllllllllllllll%....         ",
"         ....%lllllllllllllllllllllllllll%....         ",
"         ....O9999jlllllllllllllllllj9999O....         ",
"         ....O9999jlllllllllllllllllj9999O....         ",
"         ....O9999jlllllllllllllllllj9999O....         ",
"         ....O9999jlllllllllllllllllj9999O....         ",
"         24448ppppdhhhhhhhhhhhddhhhhdpppp84442         ",
"     ....vLLLSllllt99999999999999999tllllSLLLv....     ",
"     ....vLLLSlllli99999999999999999tllllSLLLv....     ",
"     ....vLLLSlllli99999999999999999tllllSLLLv....     ",
"     ....vLLLSlllli99999999999999999tllllSLLLv....     ",
"....2NNNNcccclllllBSSSSSSSSSSSSSSSSSBlllllcccnNNNN2....",
"....2LLLLcllllllllSLLLLLLLLLLLLLLLLLSllllllllcLLLL2....",
"....2LLLLcllllllllSLLLLLLLLLLLLLLLLLSllllllllcLLLL2....",
"....2LLLLcllllllllSLLLLLLLLLLLLLLLLLSllllllllcLLLL2....",
"....2SSSSueeeannnnBSSSSSSSSSSSSSSSSSBnnnnueeeuSSSS2....",
"....-llllO...*LLLLnlllllllllllllllllnLLLL*...Ollll-....",
"....-llllO...*LLLLnlllllllllllllllllnLLLL*...Ollll-....",
"....-llllO...*LLLLnlllllllllllllllllnLLLL*...Ollll-....",
"....-llllO...*LLLLnlllllllllllllllllnLLLL*...Ollll-....",
"    #&&&&X...#ssssirrre&&&&ySSSSSSSSGLLLL*...X&&&&#    ",
"     ........O999999997....0LLLLLLLLLLLLL*........     ",
"     ........O999999997....0LLLLLLLLLLLLL*........     ",
"     ........O999999997....0LLLLLLLLLLLLL*........     ",
"     ........O>>>>>>>>:....6NNNNKLLLLLLLL*........     ",
"              .........     ....ZLLLLLLLL*....         ",
"              .........     ....ZLLLLLLLL*....         ",
"              .........     ....ZLLLLLLLL*....         ",
"              .........     ....ZLLLLLLLL*....         ",
"                            ....ZLLLLLLLL*....         ",
"                            ....ZLLLLLLLL*....         ",
"                            ....ZLLLLLLLL*....         ",
"                            ....ZLLLLLLLL*....         ",
"                            ....ZLLLLLLLL*....         "
};
