/* XPM */
static char *gauche[] = {
/* columns rows colors chars-per-pixel */
"46 64 78 1 ",
"  c None",
". c #3D253B",
"X c #4B3043",
"o c #4B3144",
"O c #4C3447",
"+ c #513647",
"@ c #51394B",
"# c #5A3D4C",
"$ c #5C3F4E",
"% c #654653",
"& c #604757",
"* c #624756",
"= c #634857",
"- c #684955",
"; c #664A59",
": c #654C5B",
"> c #6F515D",
", c #72545F",
"< c #79575F",
"1 c #6F5662",
"2 c #735662",
"3 c #745863",
"4 c #735A65",
"5 c #765965",
"6 c #7F5C62",
"7 c #7A5D68",
"8 c #8D676B",
"9 c #816770",
"0 c #836972",
"q c #856B73",
"w c #886E76",
"e c #8F7076",
"r c #94777C",
"t c #A17877",
"y c #A28082",
"u c #A0878A",
"i c #A78688",
"p c #AF8E8E",
"a c #B38D8A",
"s c #BA9390",
"d c #BA9692",
"f c #B89594",
"g c #BC9997",
"h c #B89E9C",
"j c #BEA4A2",
"k c #C09A96",
"l c #C39E9A",
"z c #C3A09B",
"x c #C7A59F",
"c c #C1A5A2",
"v c #C8A4A0",
"b c #C8A6A0",
"n c #C7A9A5",
"m c #CCA8A3",
"M c #CBAAA4",
"N c #CCA9A4",
"B c #CEAAA5",
"V c #CDADA6",
"C c #C8AEA9",
"Z c #D0AEA8",
"A c #D5B3AD",
"S c #D2B6AF",
"D c #D4B4AC",
"F c #D5B5AE",
"G c #D2B8B1",
"H c #D8B8B1",
"J c #DBBCB4",
"K c #DCBDB4",
"L c #DCBEB5",
"P c #DFC0B7",
"I c #DCC1B9",
"U c #E0C3BA",
"Y c #E2C5BB",
"T c #E5C8BE",
"R c #E7CAC0",
"E c #E6CBC1",
"W c #EACFC4",
"Q c #EBD0C5",
/* pixels */
"     ................................         ",
"     ................................         ",
"     ................................         ",
"     ................................         ",
"    *77770wwwwwwwwwwwww77777777777775         ",
"....5mmmmTQQQQQQQQQQQQQmmmmmmmmmmmmmp....     ",
"....5mmmmTQQQQQQQQQQQQQmmmmmmmmmmmmmp....     ",
"....5mmmmTQQQQQQQQQQQQQmmmmmmmmmmmmmp....     ",
"....5mmmmTQQQQQQQQQQQQQmmmmmmmmmmmmmp....     ",
"....9RRRRWQQQQQQQQQQQQQRRRRKmmmmmmmmbssss2....",
"....0QQQQQQQQQQQQQQQQQQQQQQPmmmmmmmmmmmmm5....",
"....0QQQQQQQQQQQQQQQQQQQQQQPmmmmmmmmmmmmm5....",
"....0QQQQQQQQQQQQQQQQQQQQQQPmmmmmmmmmmmmm5....",
"....0QQQQQQQQQQQQQQQQQQQQQQPmmmmmmmmmmmmm5....",
"....0QQQQQQQQQQQQQQQQQQQQQQPmmmmmmmmmmmmm5....",
"....0QQQQQQQQQQQQQQQQQQQQQQPmmmmmmmmmmmmm5....",
"....0QQQQQQQQQQQQQQQQQQQQQQPmmmmmmmmmmmmm5....",
"....0QQQQQQQQQQQQQQQQQQQQQQPmmmmmmmmmmmmm5....",
"....@1111GQQQQQQQQu11111111rmmmmmmmmmmmmm5....",
".........CQQQQQQQQ0........5mmmmmmmmmmmmm5....",
".........CQQQQQQQQ0........5mmmmmmmmmmmmm5....",
".........CQQQQQQQQ0........5mmmmmmmmmmmmm5....",
".........CQQQQQQQQ0........5mmmmmmmmmmmmm5....",
".........CQQQQQQQQ0........5mmmmmmmmmmmmm5....",
".........CQQQQQQQQ0........5mmmmmmmmmmmmm5....",
".........CQQQQQQQQ0........5mmmmmmmmmmmmm5....",
".........CQQQQQQQQ0........5mmmmmmmmmmmmm5....",
"....:uuuuIQQQQQQQQjuuuueeeeummmmmmmmg7777*    ",
"....0QQQQQQQQQQQQQQQQQQmmmmmmmmmmmmmp....     ",
"....0QQQQQQQQQQQQQQQQQQmmmmmmmmmmmmmp....     ",
"....0QQQQQQQQQQQQQQQQQQmmmmmmmmmmmmmp....     ",
"....0QQQQQQQQQQQQQQQQQQmmmmmmmmmmmmmp....     ",
"....5mmmmTQQQKttttmQQQQtttt<.........         ",
"....5mmmmTQQQKttttmQQQQtttt<.........         ",
"....5mmmmTQQQKttttmQQQQtttt<.........         ",
"....5mmmmTQQQKttttmQQQQtttt<.........         ",
"....>ssssbmmmzttttsmmmmaaaay00wwO....         ",
"....*ttttttttttttttttttmmmmKQQQQ*....         ",
"....*ttttttttttttttttttmmmmKQQQQ*....         ",
"....*ttttttttttttttttttmmmmKQQQW*....         ",
"....*ttttttttttttttttttmmmmKQQQQ*....         ",
"....*ttttDUUUUUUUUUUUUUmmmmmZZZZDGGGh....     ",
"....*ttttKQQQQQQQQQQQQQmmmmmmmmmTQQQC....     ",
"....*ttttKQQQQQQQQQQQQQmmmmmmmmmTQQQC....     ",
"....*ttttKQQQQQQQQQQQQQmmmmmmmmmTQQQC....     ",
"....*ttttDUUUUUUUUUUUUUDDDDmkkkkKUUUc....     ",
"....*ttttlmmmmmmmmmmmmmQQQQmttttlmmmp....     ",
"....*ttttlmmmmmmmmmmmmmQQQQmttttlmmmp....     ",
"....*ttttlmmmmmmmmmmmmmQQQQmttttlmmmp....     ",
"....*ttttlmmmmmmmmmmmmmQQQQmttttlmmmp....     ",
"    +####nUUUUUUUUUUUUUQQQQmtttt,:::=         ",
"     ....CQQQQQQQQQQQQQQQQQmtttt+....         ",
"     ....CQQQQQQQQQQQQQQQQQmtttt+....         ",
"     ....CQQQQQQQQQQQQQQQQQmtttt+....         ",
"     ....CQQQRGGGGGGGGGUUUUztttt#OOOO         ",
"     ....CQQQC.........ttttttttttttt8....     ",
"     ....CQQQC.........ttttttttttttt8....     ",
"     ....CQQQC.........ttttttttttttt8....     ",
"     ....CQQQC.........ttttttttttttt8....     ",
"....5uuuuIQQQC.....    ----6tttttttt8....     ",
"....0QQQQQQQQC....     ....*tttttttt8....     ",
"....0QQQQQQQQC....     ....*tttttttt8....     ",
"....0QQQQQQQQC....     ....*tttttttt8....     ",
"....0QQQQQQQQC....     ....*tttttttt8....     "
};
