/* XPM */
static char *haut[] = {
/* columns rows colors chars-per-pixel */
"50 64 99 2 ",
"   c None",
".  c #3D253B",
"X  c #41283E",
"o  c #4A3144",
"O  c #563C4D",
"+  c #573D4E",
"@  c #5B4151",
"#  c #604554",
"$  c #6A4B56",
"%  c #654A58",
"&  c #664A59",
"*  c #6B505D",
"=  c #73545F",
"-  c #6C5461",
";  c #6E5562",
":  c #6F5662",
">  c #715561",
",  c #785B66",
"<  c #795C67",
"1  c #775D68",
"2  c #7A5D68",
"3  c #795F6A",
"4  c #7E616A",
"5  c #7C636D",
"6  c #7F636D",
"7  c #80636C",
"8  c #82646D",
"9  c #856B73",
"0  c #886E76",
"q  c #8D6E75",
"w  c #8F7076",
"e  c #8C737A",
"r  c #987072",
"t  c #91777D",
"y  c #95787D",
"u  c #98787D",
"i  c #A17877",
"p  c #A57C7B",
"a  c #A9817F",
"s  c #9D8386",
"d  c #A38385",
"f  c #A58487",
"g  c #AD8583",
"h  c #AE8885",
"j  c #A0878A",
"k  c #A78688",
"l  c #A8888A",
"z  c #AF8A88",
"x  c #AA8A8C",
"c  c #AE8C8D",
"v  c #B18987",
"b  c #B38D8A",
"n  c #B08E8F",
"m  c #B68F8C",
"M  c #B29090",
"N  c #B99390",
"B  c #BA9390",
"V  c #BB9592",
"C  c #BC9793",
"Z  c #B89594",
"A  c #BC9893",
"S  c #BF9B96",
"D  c #BF9C97",
"F  c #B59B9A",
"G  c #BF9C9A",
"H  c #BCA19F",
"J  c #C19E98",
"K  c #C49F9B",
"L  c #C6A19D",
"P  c #C6A29D",
"I  c #C8A49F",
"U  c #C8A5A0",
"Y  c #CAA6A1",
"T  c #CCA8A3",
"R  c #CCA9A3",
"E  c #C9A9A4",
"W  c #CFABA6",
"Q  c #CFACA6",
"!  c #D0ADA7",
"~  c #D0AEA8",
"^  c #D2AFA9",
"/  c #CBB1AC",
"(  c #D2B0AA",
")  c #D4B3AC",
"_  c #D5B4AD",
"`  c #D7B7AF",
"'  c #D7B8B0",
"]  c #D4BAB3",
"[  c #DEBFB7",
"{  c #DEC0B7",
"}  c #DDC3BA",
"|  c #E0C3BA",
" . c #E2C5BB",
".. c #E2C5BC",
"X. c #E5C9BF",
"o. c #E7CAC0",
"O. c #E8CCC2",
"+. c #EACFC4",
"@. c #EBD0C5",
/* pixels */
"                  . . . . . . . . . . . . . . . . . . . . . . . . . . .                             ",
"                  . . . . . . . . . . . . . . . . . . . . . . . . . . .                             ",
"                  . . . . . . . . . . . . . . . . . . . . . . . . . . .                             ",
"                  . . . . . . . . . . . . . . . . . . . . . . . . . . .                             ",
"                  < 2 2 2 4 0 0 0 0 0 0 0 0 0 0 0 0 0 0 0 0 0 9 2 2 2 2 #                           ",
"          . . . . G T T T ` @.@.@.@.@.@.@.@.@.@.@.@.@.@.@.@.@.X.T T T T > . . . .                   ",
"          . . . . G T T T ` @.@.@.@.@.@.@.@.@.@.@.@.@.@.@.@.@.X.T T T T > . . . .                   ",
"          . . . . G T T T ` @.@.@.@.@.@.@.@.@.@.@.@.@.@.@.@.@.X.T T T T > . . . .                   ",
"          . . . . G T T T ` @.@.@.@.@.@.@.@.@.@.@.@.@.@.@.@.@.X.T T T T > . . . .                   ",
". . . . < Z Z Z Z ..o.o.o.O.@.@.@.@.@.@.@.@.@.@.@.@.@.@.@.@.@.O.o.o.o.o.T Z Z Z c . . . .           ",
". . . . 4 T T T T O.@.@.@.@.@.@.@.@.@.@.@.@.@.@.@.@.@.@.@.@.@.@.@.@.@.@.` T T T G . . . .           ",
". . . . 4 T T T T O.@.@.@.@.@.@.@.@.@.@.@.@.@.@.@.@.@.@.@.@.@.@.@.@.@.@.` T T T G . . . .           ",
". . . . 4 T T T T O.@.@.@.@.@.@.@.@.@.@.@.@.@.@.@.@.@.@.@.@.@.@.@.@.@.@.` T T T G . . . .           ",
". . . . 4 T T T T O.@.@.@.@.@.@.@.@.@.@.@.@.@.@.@.@.@.@.@.@.@.@.@.@.@.@.` T T T G . . . .           ",
". . . . 4 T T T T O.@.@.@.@.@.@.@.@.@.@.@.@.@.@.@.@.@.@.@.@.@.@.@.@.@.@.` T T T G . . . .           ",
". . . . 4 T T T T O.@.@.@.@.@.@.@.@.@.@.@.@.@.@.@.@.@.@.@.@.@.@.@.@.@.@.` T T T G . . . .           ",
". . . . 4 T T T T O.@.@.@.@.@.@.@.@.@.@.@.@.@.@.@.@.@.@.@.@.@.@.@.@.@.@.` T T T G . . . .           ",
". . . . 4 T T T T O.@.@.@.@.@.@.@.@.@.@.@.@.@.@.@.@.@.@.@.@.@.@.@.@.@.@.` T T T G . . . .           ",
". . . . 4 T T T T 1 : : : : : : : : ] @.@.@.@.@.@.@.@.t : : : : : : : : c T T T G . . . .           ",
". . . . 4 T T T T o . . . . . . . . / @.@.@.@.@.@.@.@.: . . . . . . . . u T T T G . . . .           ",
". . . . 4 T T T T o . . . . . . . . / @.@.@.@.@.@.@.@.: . . . . . . . . u T T T G . . . .           ",
". . . . 4 T T T T o . . . . . . . . / @.@.@.@.@.@.@.@.: . . . . . . . . u T T T G . . . .           ",
". . . . 4 T T T T o . . . . . . . . / @.@.@.@.@.@.@.@.: . . . . . . . . u T T T G . . . .           ",
". . . . 4 T T T T o . . . . . . . . / @.@.@.@.@.@.@.@.: . . . . . . . . u T T T G . . . .           ",
". . . . 4 T T T T o . . . . . . . . / @.@.@.@.@.@.@.@.: . . . . . . . . u T T T G . . . .           ",
". . . . 4 T T T T o . . . . . . . . / @.@.@.@.@.@.@.@.: . . . . . . . . u T T T G . . . .           ",
". . . . 4 T T T T o . . . . . . . . / @.@.@.@.@.@.@.@.: . . . . . . . . u T T T G . . . .           ",
"        % 2 2 2 2 0 w w w y j j j j } @.@.@.@.@.@.@.@.F j j j s w w w w 7 2 2 2 <                   ",
"          . . . . G T T T ` @.@.@.@.@.@.@.@.@.@.@.@.@.@.@.@.@.X.T T T T > . . . .                   ",
"          . . . . G T T T ` @.@.@.@.@.@.@.@.@.@.@.@.@.@.@.@.@.X.T T T T > . . . .                   ",
"          . . . . G T T T ` @.@.@.@.@.@.@.@.@.@.@.@.@.@.@.@.@.X.T T T T > . . . .                   ",
"          . . . . G T T T ` @.@.@.@.@.@.@.@.@.@.@.@.@.@.@.@.@.X.T T T T > . . . .                   ",
". . . . $ i i i i I T T T Z i i i i J T T T T T T T T g i i i a T T T T v i i i r . . . .           ",
". . . . $ i i i i I T T T Z i i i i J T T T T T T T T g i i i a T T T T v i i i r . . . .           ",
". . . . $ i i i i I T T T Z i i i i J T T T T T T T T g i i i a T T T T v i i i r . . . .           ",
". . . . $ i i i i I T T T Z i i i i J T T T T T T T T g i i i a T T T T v i i i r . . . .           ",
". . . . = b b b b N Z Z Z Z J J J J Z Z Z Z Z Z Z Z Z A J J J J Z Z Z Z b b b b c 0 0 0 0 :         ",
". . . . 4 T T T T p i i i A @.@.@.@.h i i i i i i i i ' @.@.@.{ i i i i Z T T T T @.@.@.@.e . . . . ",
". . . . 4 T T T T p i i i A @.@.@.@.h i i i i i i i i ] @.@.@.{ i i i i Z T T T T @.@.@.@.e . . . . ",
". . . . 4 T T T T p i i i A @.@.@.@.h i i i i i i i i ] @.@.@.{ i i i i Z T T T T @.@.@.@.e . . . . ",
". . . . 4 T T T T p i i i A @.@.@.@.h i i i i i i i i ] @.@.@.{ i i i i Z T T T T @.@.@.@.e . . . . ",
". . . . 4 T T T T P P P P Y ~ ~ ~ ~ [ ................` ~ ~ ~ T P P P P Y T T T T ~ ~ ~ ~ 7 . . . . ",
". . . . 4 T T T T T T T T T T T T T X.@.@.@.@.@.@.@.@.` T T T T T T T T T T T T T T T T T 4 . . . . ",
". . . . 4 T T T T T T T T T T T T T X.@.@.@.@.@.@.@.@.` T T T T T T T T T T T T T T T T T 4 . . . . ",
". . . . 4 T T T T T T T T T T T T T X.@.@.@.O.O.O.O.@.` T T T T T T T T T T T T T T T T T 4 . . . . ",
". . . . * d d d d Y T T T T T T T T [ ................` T T T T T T T T M d d d j T T T T 4 . . . . ",
". . . . . . . . . G T T T T T T T T T T T T T T T T T T T T T T T T T T > . . . o T T T T 4 . . . . ",
". . . . . . . . . G T T T T T T T T T T T T T T T T T T T T T T T T T T > . . . o T T T T 4 . . . . ",
". . . . . . . . . G T T T T T T T T T T T T T T T T T T T T T T T T T T > . . . o T T T T 4 . . . . ",
". . . . . . . . . G T T T T T T T T T T T T T T T T T T T T T T T T T T > . . . o T T T T 4 . . . . ",
"        . . . . . G T T T T T T T T < % % % % % % % % b T T T ~ ........2 . . . X % % % % @         ",
"          . . . . G T T T T T T T T + . . . . . . . . d T T T ~ @.@.@.@.4 . . . . . . . .           ",
"          . . . . G T T T T T T T T + . . . . . . . . d T T T ~ @.@.@.@.4 . . . . . . . .           ",
"          . . . . G T T T T T T T T + . . . . . . . . d T T T ~ @.@.@.@.4 . . . . . . . .           ",
"          . . . . c Z Z Z Z Z Z Z Z + . . . . . . . . c ~ ~ ~ ` @.@.@.@.4 . . . . . . . .           ",
"                  . . . . . . . . .           . . . . H @.@.@.@.@.@.@.@.4 . . . .                   ",
"                  . . . . . . . . .           . . . . H @.@.@.@.@.@.@.@.4 . . . .                   ",
"                  . . . . . . . . .           . . . . H @.@.@.@.@.@.@.@.4 . . . .                   ",
"                  . . . . . . . . .           . . . . H @.@.@.@.@.@.@.@.4 . . . .                   ",
"                                              . . . . H @.@.@.@.@.@.@.@.4 . . . .                   ",
"                                              . . . . H @.@.@.@.@.@.@.@.4 . . . .                   ",
"                                              . . . . H @.@.@.@.@.@.@.@.4 . . . .                   ",
"                                              . . . . H @.@.@.@.@.@.@.@.4 . . . .                   ",
"                                              . . . . H @.@.@.@.@.@.@.@.4 . . . .                   "
};
