/* XPM */
static char *ennemy[] = {
/* columns rows colors chars-per-pixel */
"62 64 196 2 ",
"   c None",
".  c #1D1D1C",
"X  c #1D2121",
"o  c #1D2222",
"O  c #1F2522",
"+  c #1D2424",
"@  c #1D2525",
"#  c #1D2727",
"$  c #1C2B2B",
"%  c #1C2B2C",
"&  c #1C2C2D",
"*  c #1C2E2F",
"=  c #1C3132",
"-  c #1C3A3C",
";  c #1C3B3D",
":  c #1C3C3E",
">  c #22312C",
",  c #213631",
"<  c #223732",
"1  c #223832",
"2  c #223932",
"3  c #243A32",
"4  c #243C33",
"5  c #253F36",
"6  c #4C6139",
"7  c #637A3C",
"8  c #637C3F",
"9  c #1C3F42",
"0  c #1B4144",
"q  c #1B4245",
"w  c #1B474B",
"e  c #1B4A4E",
"r  c #1B4B4F",
"t  c #1E5051",
"y  c #21514E",
"u  c #2A5748",
"i  c #2B5A4B",
"p  c #29594C",
"a  c #2B5D4E",
"s  c #215451",
"d  c #215553",
"f  c #215754",
"g  c #255F57",
"h  c #2A5F59",
"j  c #2E6956",
"k  c #2A695B",
"l  c #2E6D5A",
"z  c #2B6C5D",
"x  c #2C6D5D",
"c  c #306E5A",
"v  c #306E5B",
"b  c #2D705E",
"n  c #34745A",
"m  c #30715C",
"M  c #33735D",
"N  c #35775E",
"B  c #36795E",
"V  c #37785F",
"C  c #366F60",
"Z  c #327962",
"A  c #388164",
"S  c #398264",
"D  c #398465",
"F  c #398565",
"G  c #3B8766",
"H  c #3D8966",
"J  c #3E8966",
"K  c #518455",
"L  c #629459",
"P  c #62965B",
"I  c #709850",
"U  c #789F51",
"Y  c #6EA15C",
"T  c #77A95C",
"R  c #7BAB5A",
"E  c #428763",
"W  c #408964",
"Q  c #408A64",
"!  c #468F65",
"~  c #4B8E63",
"^  c #418E68",
"/  c #4A896D",
"(  c #499265",
")  c #4B9466",
"_  c #4A9B67",
"`  c #459469",
"'  c #479468",
"]  c #49996A",
"[  c #499C6A",
"{  c #4A9C6B",
"}  c #4B9C6B",
"|  c #4B9F6A",
" . c #4E9D68",
".. c #4D9E6B",
"X. c #4C9E6C",
"o. c #509866",
"O. c #539F75",
"+. c #4DA16A",
"@. c #4DA26B",
"#. c #4DA16D",
"$. c #4FA46E",
"%. c #51A66B",
"&. c #51A56D",
"*. c #53A96F",
"=. c #53AA6E",
"-. c #54AE6F",
";. c #56AF70",
":. c #56A875",
">. c #59A779",
",. c #58A878",
"<. c #5BAE78",
"1. c #5EAF7B",
"2. c #56B372",
"3. c #58B272",
"4. c #5AB673",
"5. c #5CB375",
"6. c #5EBA70",
"7. c #5CBA73",
"8. c #5CB974",
"9. c #5EBD74",
"0. c #67A764",
"q. c #7FBB64",
"w. c #7EC469",
"e. c #61C376",
"r. c #61C475",
"t. c #62C475",
"y. c #63C777",
"u. c #64C978",
"i. c #65CC78",
"p. c #68CF7A",
"a. c #77CE7B",
"s. c #6BD177",
"d. c #68D17A",
"f. c #69D37A",
"g. c #6AD37B",
"h. c #6BD67C",
"j. c #6DD87C",
"k. c #6EDB7D",
"l. c #6FDD7E",
"z. c #70DC7C",
"x. c #72E27F",
"c. c #7BE47C",
"v. c #8BAE4E",
"b. c #82B35C",
"n. c #88BB5F",
"m. c #8ABC5F",
"M. c #91B651",
"N. c #83B964",
"B. c #9DC556",
"V. c #91C55E",
"C. c #A5D05A",
"Z. c #AEDC5E",
"A. c #86C264",
"S. c #8CC56A",
"D. c #92C460",
"F. c #96C961",
"G. c #91CC65",
"H. c #99CF61",
"J. c #9CCF62",
"K. c #9BD264",
"L. c #A0D362",
"P. c #A4DA64",
"I. c #80E57B",
"U. c #94EA75",
"Y. c #9EED72",
"T. c #AEE264",
"R. c #A9E469",
"E. c #ADF06D",
"W. c #B1F16C",
"Q. c #BEF66E",
"!. c #A2EE70",
"~. c #A1EF76",
"^. c #A4F077",
"/. c #B5F574",
"(. c #B8F571",
"). c #BCF772",
"_. c #BBF774",
"`. c #BAF877",
"'. c #B7F87D",
"]. c #C1F567",
"[. c #71C983",
"{. c #7DCC8D",
"}. c #73DD81",
"|. c #7CDD89",
" X c #74E181",
".X c #78E583",
"XX c #80D190",
"oX c #83D993",
"OX c #80EA8A",
"+X c #83EC8C",
"@X c #85ED8D",
"#X c #93F599",
"$X c #A0F384",
"%X c #B4F983",
"&X c #B1FB8A",
"*X c #A4FFA6",
/* pixels */
"                                                                                                                            ",
"                                                                                                                            ",
"                                                                                                                            ",
"                                                                                                                            ",
"                                                                                                                            ",
"                                                                                                                            ",
"                                                                                                                            ",
"                            . . . .       . . . .       . . . .                                                             ",
"                            . . . .       . . . .       . . . .                                                             ",
"                            . . . .       . . . .       . . . .                                                             ",
"                            . . . .       % % % %       . . . .                                                             ",
"              . . . .       . . . . . . . 9 r r q . . . . . . .       . . . .                                               ",
"              . . . .       . . . . . . . 9 r r q . . . . . . .       . . . .                                               ",
"              . . . .       . . . . . . . 9 r r q . . . . . . .       . . . .                                               ",
"              . . . . . . . v.B.B.U q q q R J.J.b.q q q I B.B.M.. . . . . . .                                               ",
"              . . . . . . . C.].].D.r r r F.].].L.r r r n.].].Z.. . . . . . .                                               ",
"              . . . . . . . C.].].D.r r r F.].].L.r r r n.].].Z.. . . . . . .                                               ",
"              . . . O > > > V.R.R.A.l l l K.].].P.l l l q.R.R.J.O O O O . . .                                               ",
"              . . . 5 Z Z Z #.*.*.8.x.x.x.E.].].W.x.x.x.8.*.*...r r r = . . .                                               ",
"              . . . 5 Z Z Z #.*.*.8.x.x.x.E.].].W.x.x.x.8.*.*...r r r = . . .                                               ",
"              . . . 5 Z Z Z #.*.*.8.x.x.x.E.].].W.x.x.x.8.*.*...r r r = . . .                                               ",
"        . . . u i i K F.F.F.( H H :.#X#X#X/.].].(.#X#X#X<.H H ! n.n.n.6 . . .                                               ",
"        . . . m Z Z 0.].].].~ Z Z O.*X*X*X`.].].(.*X*X*X>.Z Z E ].].].8 . . .                                               ",
"        . . . m Z Z 0.].].].~ Z Z O.*X*X*X`.].].(.*X*X*X>.Z Z E ].].].8 . . .                                               ",
"        . . . m Z Z 0.].].].o.F F <.*X*X*X`.].].(.*X*X*X<.F F ( ].].].8 O O O                                               ",
"        . . . m Z Z 0.].].].I.x.x.@X*X*X*X`.].].(.*X*X*X@Xx.x.c.].].].P r r r . . . .                                       ",
"        . . . m Z Z 0.].].].I.x.x.@X*X*X*X`.].].(.*X*X*X@Xx.x.c.].].].P r r r . . . .                                       ",
"        . . . m Z Z 0.].].].I.x.x.@X*X*X*X`.].].(.*X*X*X@Xx.x.c.].].].P r r r . . . .                                       ",
"        . . . %.2.2.a.&X&X&X!.Y.Y.^.%X%X%XQ.].].(.*X*X*X$XY.Y.!.].].].w....._ . . . .                                       ",
"        . . . s.x.x.@X*X*X*X(.].].].].].].].].].(.*X*X*X'.].].].].].].U.x.x.z.. . . .                                       ",
"        . . . s.x.x.@X*X*X*X(.].].].].].].].].].(.*X*X*X'.].].].].].].U.x.x.z.. . . .                                       ",
"        . . . s.x.x.@X*X*X*X(.].].].].].].].].].(.*X*X*X'.].].].].].].U.x.x.z.. . . .                                       ",
"        . . . s.x.x.@X*X*X*X*X*X*X{.r r r F.].].].].].].].].].T.r r r #.x.x.z.. . . .                                       ",
"        . . . s.x.x.@X*X*X*X*X*X*X{.r r r F.].].].].].].].].].T.r r r #.x.x.z.. . . .                                       ",
"        . . . s.x.x.@X*X*X*X*X*X*X{.r r r F.].].].].].].].].].T.r r r #.x.x.z.. . . .                                       ",
"        . . . 8.u.u.|.*X*X*X*X*X*XXXk k g P T T N.%X%X%XS.T T Y g g g ..u.u.e.. . . .                                       ",
"        . . . ..*.*.[.*X*X*X*X*X*XoXZ Z Z d r r C *X*X*X/ r r t Z Z Z ' *.*.%.. . . .                                       ",
"        . . . ..*.*.[.*X*X*X*X*X*XoXZ Z Z d r r C *X*X*X/ r r t Z Z Z ' *.*.%.. . . .                                       ",
"        . . . ..*.*.[.*X*X*X*X*X*XoXZ Z Z d r r C *X*X*X/ r r t Z Z Z ' *.*.%.. . . .                                       ",
"        . . . y d d V 5.5.5.}..X.X Xg.g.g.g.g.g.8.h h h *.g.g.u.#.#.#.m d d d . . . .                                       ",
"        . . . w r r v *.*.*.j.x.x.x.x.x.x.x.x.x.e.r r r *.x.x.j.*.*.*.m r r r . . . .                                       ",
"        . . . w r r v *.*.*.j.x.x.x.x.x.x.x.x.x.e.r r r *.x.x.j.*.*.*.m r r r . . . .                                       ",
"        . . . : : : i ! ! ! e.u.p.p.p.p.p.j.x.x.e.r r r #.p.u.e.! ! ! i : : : . . .                                         ",
"              . . . % r r r ..*.*.*.*.*.*.g.x.x.e.r r r ! *.*...r r r = . . .                                               ",
"              . . . % r r r ..*.*.*.*.*.*.g.x.x.e.r r r ! *.*...r r r = . . .                                               ",
"              . . . % r r r ..*.*.*.*.*.*.g.x.x.e.r r r ! *.*...r r r = . . .                                               ",
"                    O O O O m F F ^ *.*.*.5.5.5.:.' ' ' H F F V O O O O                                                     ",
"                      . . . j Z Z F *.*.*.*.*.*.*.*.*.*.H Z Z l . . .                                                       ",
"                      . . . j Z Z F *.*.*.*.*.*.*.*.*.*.H Z Z l . . .                                                       ",
"                      . . . j Z Z F ' ' ' ........' ' ' F Z Z l . . .                                                       ",
"                      . . . j Z Z l r r r l Z Z b r r r l Z Z l . . .                                                       ",
"                      . . . j Z Z l r r r l Z Z b r r r l Z Z l . . .                                                       ",
"                      . . . j Z Z l r r r l Z Z l r r r l Z Z v . . .                                                       ",
"                            5 5 5 < % % % 5 5 5 5 % % % < 5 5 5                                                             ",
"                            . . . . . . . . . . . . . . . . . .                                                             ",
"                            . . . . . . . . . . . . . . . . . .                                                             ",
"                            . . . . . . . . . . . . . . . . . .                                                             ",
"                                                                                                                            ",
"                                                                                                                            ",
"                                                                                                                            ",
"                                                                                                                            ",
"                                                                                                                            ",
"                                                                                                                            ",
"                                                                                                                            "
};
