/* XPM */
static char *exitopen[] = {
/* columns rows colors chars-per-pixel */
"64 64 3 1 ",
"  c black",
". c #794100",
"X c #C37100",
/* pixels */
"........XXXXXXXXXXXX    XXXXXXXX........        ........XXXXXXXX",
"........XXXXXXXXXXXX    XXXXXXXX........        ........XXXXXXXX",
"........XXXXXXXXXXXX    XXXXXXXX........        ........XXXXXXXX",
"........XXXXXXXXXXXX    XXXXXXXX........        ........XXXXXXXX",
"........XXXXXXXX........XXXXXXXX............    ....XXXXXXXXXXXX",
"........XXXXXXXX........XXXXXXXX............    ....XXXXXXXXXXXX",
"........XXXXXXXX........XXXXXXXX............    ....XXXXXXXXXXXX",
"........XXXXXXXX........XXXXXXXX............    ....XXXXXXXXXXXX",
"....XXXXXXXX........XXXXXXXXXXXXXXXX........    ....XXXXXXXX....",
"....XXXXXXXX........XXXXXXXXXXXXXXXX........    ....XXXXXXXX....",
"....XXXXXXXX........XXXXXXXXXXXXXXXX........    ....XXXXXXXX....",
"....XXXXXXXX........XXXXXXXXXXXXXXXX........    ....XXXXXXXX....",
"....XXXXXXXX........XXXX....................    ........XXXX....",
"....XXXXXXXX........XXXX....................    ........XXXX....",
"....XXXXXXXX........XXXX....................    ........XXXX....",
"....XXXXXXXX........XXXX....................    ........XXXX....",
"....XXXXXXXX............                        ........XXXX....",
"....XXXXXXXX............                        ........XXXX....",
"....XXXXXXXX............                        ........XXXX....",
"....XXXXXXXX............                        ........XXXX....",
"........XXXX........                            ................",
"........XXXX........                            ................",
"........XXXX........                            ................",
"........XXXX........                            ................",
"    ............                                    ............",
"    ............                                    ............",
"    ............                                    ............",
"    ............                                    ............",
"    XXXX........                                        ....    ",
"    XXXX........                                        ....    ",
"    XXXX........                                        ....    ",
"    XXXX........                                        ....    ",
"....XXXX........                                            ....",
"....XXXX........                                            ....",
"....XXXX........                                            ....",
"....XXXX........                                            ....",
"....XXXX........                                            ....",
"....XXXX........                                            ....",
"....XXXX........                                            ....",
"....XXXX........                                            ....",
"....XXXX....                                                ....",
"....XXXX....                                                ....",
"....XXXX....                                                ....",
"....XXXX....                                                ....",
"....XXXX....                                            ........",
"....XXXX....                                            ........",
"....XXXX....                                            ........",
"....XXXX....                                            ........",
"    XXXX....                                            ........",
"    XXXX....                                            ........",
"    XXXX....                                            ........",
"    XXXX....                                            ........",
"    ........                                            ....    ",
"    ........                                            ....    ",
"    ........                                            ....    ",
"    ........                                            ....    ",
"....    ....                                                ....",
"....    ....                                                ....",
"....    ....                                                ....",
"....    ....                                                ....",
"....                                                    ........",
"....                                                    ........",
"....                                                    ........",
"....                                                    ........"
};
