/* XPM */
static char *floor[] = {
/* columns rows colors chars-per-pixel */
"64 64 3 1 ",
"  c #794100",
". c #C37100",
"X c #FFA200",
/* pixels */
"............................            ............        ....",
"............................            ............        ....",
"............................            ............        ....",
"............................            ............        ....",
"........................                            ............",
"........................                            ............",
"........................                            ............",
"........................                            ............",
"....................        XXXXXXXXXXXX....    ................",
"....................        XXXXXXXXXXXX....    ................",
"....................        XXXXXXXXXXXX....    ................",
"....................        XXXXXXXXXXXX....    ................",
"................        XXXXXXXXXXXX....XXXX                ....",
"................        XXXXXXXXXXXX....XXXX                ....",
"................        XXXXXXXXXXXX....XXXX                ....",
"................        XXXXXXXXXXXX....XXXX                ....",
"                        ....................                    ",
"                        ....................                    ",
"                        ....................                    ",
"                        ....................                    ",
"            XXXXXXXXXXXX                            ............",
"            XXXXXXXXXXXX                            ............",
"            XXXXXXXXXXXX                            ............",
"            XXXXXXXXXXXX                            ............",
"        XXXXXXXXXXXX....            ............................",
"        XXXXXXXXXXXX....            ............................",
"        XXXXXXXXXXXX....            ............................",
"        XXXXXXXXXXXX....            ............................",
"....    ............        ....................................",
"....    ............        ....................................",
"....    ............        ....................................",
"....    ............        ....................................",
"....                                    ........................",
"....                                    ........................",
"....                                    ........................",
"....                                    ........................",
"................        XXXXXXXX....            ................",
"................        XXXXXXXX....            ................",
"................        XXXXXXXX....            ................",
"................        XXXXXXXX....            ................",
"........            ....XXXX............            ............",
"........            ....XXXX............            ............",
"........            ....XXXX............            ............",
"........            ....XXXX............            ............",
"        ........    ....................            ....        ",
"        ........    ....................            ....        ",
"        ........    ....................            ....        ",
"        ........    ....................            ....        ",
"............                                            ........",
"............                                            ........",
"............                                            ........",
"............                                            ........",
"....            ............................        ............",
"....            ............................        ............",
"....            ............................        ............",
"....            ............................        ............",
"        ................................    ....................",
"        ................................    ....................",
"        ................................    ....................",
"        ................................    ....................",
"    ................................    ....................    ",
"    ................................    ....................    ",
"    ................................    ....................    ",
"    ................................    ....................    "
};
