/* XPM */
static char *coin[] = {
/* columns rows colors chars-per-pixel */
"64 64 5 1 ",
"  c None",
". c #25131A",
"X c #C09344",
"o c #FFD569",
"O c #FFF1CC",
/* pixels */
"                                                                ",
"                                                                ",
"                                                                ",
"                                                                ",
"                                                                ",
"                                                                ",
"                                                                ",
"                                                                ",
"                                                                ",
"                                                                ",
"                                                                ",
"                                                                ",
"                        ................                        ",
"                        ................                        ",
"                        ................                        ",
"                        ................                        ",
"                    ....XXXXXXXXXXXXXXXX....                    ",
"                    ....XXXXXXXXXXXXXXXX....                    ",
"                    ....XXXXXXXXXXXXXXXX....                    ",
"                    ....XXXXXXXXXXXXXXXX....                    ",
"                ....XXXXOOOOOOOOOOOOooooXXXX....                ",
"                ....XXXXOOOOOOOOOOOOooooXXXX....                ",
"                ....XXXXOOOOOOOOOOOOooooXXXX....                ",
"                ....XXXXOOOOOOOOOOOOooooXXXX....                ",
"            ....XXXXOOOOOOOOXXXXXXXXooooOOOOXXXX....            ",
"            ....XXXXOOOOOOOOXXXXXXXXooooOOOOXXXX....            ",
"            ....XXXXOOOOOOOOXXXXXXXXooooOOOOXXXX....            ",
"            ....XXXXOOOOOOOOXXXXXXXXooooOOOOXXXX....            ",
"            ....XXXXOOOOXXXXOOOOooooXXXXooooXXXX....            ",
"            ....XXXXOOOOXXXXOOOOooooXXXXooooXXXX....            ",
"            ....XXXXOOOOXXXXOOOOooooXXXXooooXXXX....            ",
"            ....XXXXOOOOXXXXOOOOooooXXXXooooXXXX....            ",
"            ....XXXXooooXXXXooooooooXXXXooooXXXX....            ",
"            ....XXXXooooXXXXooooooooXXXXooooXXXX....            ",
"            ....XXXXooooXXXXooooooooXXXXooooXXXX....            ",
"            ....XXXXooooXXXXooooooooXXXXooooXXXX....            ",
"            ....XXXXOOOOooooXXXXXXXXooooooooXXXX....            ",
"            ....XXXXOOOOooooXXXXXXXXooooooooXXXX....            ",
"            ....XXXXOOOOooooXXXXXXXXooooooooXXXX....            ",
"            ....XXXXOOOOooooXXXXXXXXooooooooXXXX....            ",
"                ....XXXXooooooooooooooooXXXX....                ",
"                ....XXXXooooooooooooooooXXXX....                ",
"                ....XXXXooooooooooooooooXXXX....                ",
"                ....XXXXooooooooooooooooXXXX....                ",
"                    ....XXXXXXXXXXXXXXXX....                    ",
"                    ....XXXXXXXXXXXXXXXX....                    ",
"                    ....XXXXXXXXXXXXXXXX....                    ",
"                    ....XXXXXXXXXXXXXXXX....                    ",
"                        ................                        ",
"                        ................                        ",
"                        ................                        ",
"                        ................                        ",
"                                                                ",
"                                                                ",
"                                                                ",
"                                                                ",
"                                                                ",
"                                                                ",
"                                                                ",
"                                                                ",
"                                                                ",
"                                                                ",
"                                                                ",
"                                                                "
};
