/* XPM */
static char *player[] = {
/* columns rows colors chars-per-pixel */
"60 64 69 1 ",
"  c None",
". c #1D1D1C",
"X c #3A1C1F",
"o c #3F1B20",
"O c #232020",
"+ c #2F2426",
"@ c #2D2A2B",
"# c #312E2C",
"$ c #393332",
"% c #5F361F",
"& c #521A22",
"* c #6E1923",
"= c #6D193D",
"- c #49272E",
"; c #442A31",
": c #723C23",
"> c #46403C",
", c #48413E",
"< c #7C403F",
"1 c #6C6C39",
"2 c #493F41",
"3 c #663A56",
"4 c #424145",
"5 c #48454B",
"6 c #4E4E57",
"7 c #464759",
"8 c #51525F",
"9 c #7A434C",
"0 c #674A53",
"q c #6B5F5A",
"w c #4E4F65",
"e c #555567",
"r c #5C5962",
"t c #7C476A",
"y c #8A171A",
"u c #931616",
"i c #8E1720",
"p c #93172A",
"a c #941A39",
"s c #A01626",
"d c #A21A2D",
"f c #B71522",
"g c #BC1724",
"h c #BB2D2D",
"j c #C2161D",
"k c #D81E1E",
"l c #D32E28",
"z c #DD3233",
"x c #E33A3A",
"c c #8B4C2D",
"v c #9E4D29",
"b c #874D36",
"n c #A75222",
"m c #AB5323",
"M c #B15A3D",
"N c #E74E3C",
"B c #DC6039",
"V c #811B43",
"C c #802847",
"Z c #8B2945",
"A c #CA3440",
"S c #B25F5F",
"D c #855073",
"F c #AA5266",
"G c #A35C73",
"H c #B46E77",
"J c #948643",
"K c #7C7787",
"L c #8E889A",
/* pixels */
"                                                            ",
"                                                            ",
"                                                            ",
"                                                            ",
"                    ....####            @@@@++++            ",
"                    ....####            @@@@++++            ",
"                    ....####            @@@@++++            ",
"                    ....####            @@@@++++            ",
"                    ....qqqq@@@@    @@@@,,,,>>>>            ",
"                    ....qqqq@@@@    @@@@,,,,>>>>            ",
"                    ....qqqq@@@@    @@@@,,,,>>>>            ",
"                    ....qqqq@@@@    @@@@,,,,>>>>            ",
"                    ....2222----::::;;;;$$$$                ",
"                    ....2222----::::;;;;$$$$                ",
"                    ....2222----::::;;;;$$$$                ",
"                    ....2222----::::;;;;$$$$                ",
"                    ....ccccJJJJBBBB1111....                ",
"                    ....ccccJJJJBBBB1111....                ",
"                    ....ccccJJJJBBBB1111....                ",
"                    ....ccccJJJJBBBB1111....                ",
"                        %%%%MMMMllllbbbb....                ",
"                        %%%%MMMMllllbbbb....                ",
"                        %%%%MMMMllllbbbb....                ",
"                        %%%%MMMMllllbbbb....                ",
"                    ....mmmm====ssssXXXX                    ",
"                    ....mmmm====ssssXXXX                    ",
"                    ....mmmm====ssssXXXX                    ",
"                    ....mmmm====ssssXXXX                    ",
"        ....    ....nnnnNNNNjjjjVVVVuuuu....    ........    ",
"        ....    ....nnnnNNNNjjjjVVVVuuuu....    ........    ",
"        ....    ....nnnnNNNNjjjjVVVVuuuu....    ........    ",
"        ....    ....nnnnNNNNjjjjVVVVuuuu....    ........    ",
"        rrrrKKKKvvvvhhhhjjjjxxxxkkkkzzzzyyyy++++LLLL5555    ",
"        rrrrKKKKvvvvhhhhjjjjxxxxkkkkzzzzyyyy++++LLLL5555    ",
"        rrrrKKKKvvvvhhhhjjjjxxxxkkkkzzzzyyyy++++LLLL5555    ",
"        rrrrKKKKvvvvhhhhjjjjxxxxkkkkzzzzyyyy++++LLLL5555    ",
"            eeeeFFFFCCCCaaaaggggAAAAddddZZZZGGGG6666        ",
"            eeeeFFFFCCCCaaaaggggAAAAddddZZZZGGGG6666        ",
"            eeeeFFFFCCCCaaaaggggAAAAddddZZZZGGGG6666        ",
"            eeeeFFFFCCCCaaaaggggAAAAddddZZZZGGGG6666        ",
"                wwww66663333ttttDDDD333388887777            ",
"                wwww66663333ttttDDDD333388887777            ",
"                wwww66663333ttttDDDD333388887777            ",
"                wwww66663333ttttDDDD333388887777            ",
"                    @@@@9999SSSSHHHH<<<<@@@@                ",
"                    @@@@9999SSSSHHHH<<<<@@@@                ",
"                    @@@@9999SSSSHHHH<<<<@@@@                ",
"                    @@@@9999SSSSHHHH<<<<@@@@                ",
"                    ....ppppffff****iiii....                ",
"                    ....ppppffff****iiii....                ",
"                    ....ppppffff****iiii....                ",
"                    ....ppppffff****iiii....                ",
"                    ....pppp&&&&    oooo....                ",
"                    ....pppp&&&&    oooo....                ",
"                    ....pppp&&&&    oooo....                ",
"                    ....pppp&&&&    oooo....                ",
"                    ....0000OOOO    @@@@4444                ",
"                    ....0000OOOO    @@@@4444                ",
"                    ....0000OOOO    @@@@4444                ",
"                    ....0000OOOO    @@@@4444                ",
"                                                            ",
"                                                            ",
"                                                            ",
"                                                            "
};
