/* XPM */
static char *item[] = {
/* columns rows colors chars-per-pixel */
"64 64 5 1 ",
"  c black",
". c #794100",
"X c #C37100",
"o c #FFA200",
"O c #FFDBA2",
/* pixels */
"XXXX................XXXXXXXXXXXXXXXX........XXXXXXXXXXXXXXXXXXXX",
"XXXX................XXXXXXXXXXXXXXXX........XXXXXXXXXXXXXXXXXXXX",
"XXXX................XXXXXXXXXXXXXXXX........XXXXXXXXXXXXXXXXXXXX",
"XXXX................XXXXXXXXXXXXXXXX........XXXXXXXXXXXXXXXXXXXX",
"oooooooooooooooooooo                        ooooooooooooooooXXXX",
"oooooooooooooooooooo                        ooooooooooooooooXXXX",
"oooooooooooooooooooo                        ooooooooooooooooXXXX",
"oooooooooooooooooooo                        ooooooooooooooooXXXX",
"oooooooooooo        OOOOOOOOOOOOOOOOOOOOoooo        oooooooooooo",
"oooooooooooo        OOOOOOOOOOOOOOOOOOOOoooo        oooooooooooo",
"oooooooooooo        OOOOOOOOOOOOOOOOOOOOoooo        oooooooooooo",
"oooooooooooo        OOOOOOOOOOOOOOOOOOOOoooo        oooooooooooo",
"oooooooo    ooooOOOO                ........OOOOoooo    ooooXXXX",
"oooooooo    ooooOOOO                ........OOOOoooo    ooooXXXX",
"oooooooo    ooooOOOO                ........OOOOoooo    ooooXXXX",
"oooooooo    ooooOOOO                ........OOOOoooo    ooooXXXX",
"XXXXXXXX    ooooOOOO        ................OOOOoooo    XXXXXXXX",
"XXXXXXXX    ooooOOOO        ................OOOOoooo    XXXXXXXX",
"XXXXXXXX    ooooOOOO        ................OOOOoooo    XXXXXXXX",
"XXXXXXXX    ooooOOOO        ................OOOOoooo    XXXXXXXX",
"oooooooooooo    ooooooooooooOOOOOOOOOOOOOOOOoooo    XXXXoooooooo",
"oooooooooooo    ooooooooooooOOOOOOOOOOOOOOOOoooo    XXXXoooooooo",
"oooooooooooo    ooooooooooooOOOOOOOOOOOOOOOOoooo    XXXXoooooooo",
"oooooooooooo    ooooooooooooOOOOOOOOOOOOOOOOoooo    XXXXoooooooo",
"oooooooo    XXXX        XXXXXXXXXXXXXXXX....            oooooooo",
"oooooooo    XXXX        XXXXXXXXXXXXXXXX....            oooooooo",
"oooooooo    XXXX        XXXXXXXXXXXXXXXX....            oooooooo",
"oooooooo    XXXX        XXXXXXXXXXXXXXXX....            oooooooo",
"oooo    XXXXooooOOOOOOOO................XXXX........        oooo",
"oooo    XXXXooooOOOOOOOO................XXXX........        oooo",
"oooo    XXXXooooOOOOOOOO................XXXX........        oooo",
"oooo    XXXXooooOOOOOOOO................XXXX........        oooo",
"XXXX    ooooOOOOOOOOOOOOOOOOooooXXXXXXXXXXXXXXXX........    XXXX",
"XXXX    ooooOOOOOOOOOOOOOOOOooooXXXXXXXXXXXXXXXX........    XXXX",
"XXXX    ooooOOOOOOOOOOOOOOOOooooXXXXXXXXXXXXXXXX........    XXXX",
"XXXX    ooooOOOOOOOOOOOOOOOOooooXXXXXXXXXXXXXXXX........    XXXX",
"oooo    ooooooooOOOOOOOOOOOOOOOOooooXXXXXXXXXXXXXXXX....    oooo",
"oooo    ooooooooOOOOOOOOOOOOOOOOooooXXXXXXXXXXXXXXXX....    oooo",
"oooo    ooooooooOOOOOOOOOOOOOOOOooooXXXXXXXXXXXXXXXX....    oooo",
"oooo    ooooooooOOOOOOOOOOOOOOOOooooXXXXXXXXXXXXXXXX....    oooo",
"oooo    XXXXooooOOOOOOOOOOOOOOOOOOOOooooXXXXXXXX........    oooo",
"oooo    XXXXooooOOOOOOOOOOOOOOOOOOOOooooXXXXXXXX........    oooo",
"oooo    XXXXooooOOOOOOOOOOOOOOOOOOOOooooXXXXXXXX........    oooo",
"oooo    XXXXooooOOOOOOOOOOOOOOOOOOOOooooXXXXXXXX........    oooo",
"oooo        XXXXooooOOOOOOOOOOOOOOOOooooXXXX............    oooo",
"oooo        XXXXooooOOOOOOOOOOOOOOOOooooXXXX............    oooo",
"oooo        XXXXooooOOOOOOOOOOOOOOOOooooXXXX............    oooo",
"oooo        XXXXooooOOOOOOOOOOOOOOOOooooXXXX............    oooo",
"XXXXXXXX        XXXXooooOOOOooooooooXXXX............    XXXXXXXX",
"XXXXXXXX        XXXXooooOOOOooooooooXXXX............    XXXXXXXX",
"XXXXXXXX        XXXXooooOOOOooooooooXXXX............    XXXXXXXX",
"XXXXXXXX        XXXXooooOOOOooooooooXXXX............    XXXXXXXX",
"oooooooooooo            XXXXXXXX............        XXXXoooooooo",
"oooooooooooo            XXXXXXXX............        XXXXoooooooo",
"oooooooooooo            XXXXXXXX............        XXXXoooooooo",
"oooooooooooo            XXXXXXXX............        XXXXoooooooo",
"ooooooooooooXXXXoooo                        oooooooooooooooooooo",
"ooooooooooooXXXXoooo                        oooooooooooooooooooo",
"ooooooooooooXXXXoooo                        oooooooooooooooooooo",
"ooooooooooooXXXXoooo                        oooooooooooooooooooo",
"ooooooooooooooooooooooooooooooooooooooooXXXXXXXX....XXXXoooooooo",
"ooooooooooooooooooooooooooooooooooooooooXXXXXXXX....XXXXoooooooo",
"ooooooooooooooooooooooooooooooooooooooooXXXXXXXX....XXXXoooooooo",
"ooooooooooooooooooooooooooooooooooooooooXXXXXXXX....XXXXoooooooo"
};
