/* XPM */
static char *wall[] = {
/* columns rows colors chars-per-pixel */
"64 64 3 1 ",
"  c black",
". c #794100",
"X c #C37100",
/* pixels */
"........XXXXXXXXXXXX    XXXXXXXX........        ........XXXXXXXX",
"........XXXXXXXXXXXX    XXXXXXXX........        ........XXXXXXXX",
"........XXXXXXXXXXXX    XXXXXXXX........        ........XXXXXXXX",
"........XXXXXXXXXXXX    XXXXXXXX........        ........XXXXXXXX",
"........XXXXXXXX........XXXXXXXX............    ....XXXXXXXXXXXX",
"........XXXXXXXX........XXXXXXXX............    ....XXXXXXXXXXXX",
"........XXXXXXXX........XXXXXXXX............    ....XXXXXXXXXXXX",
"........XXXXXXXX........XXXXXXXX............    ....XXXXXXXXXXXX",
"....XXXXXXXX........XXXXXXXXXXXXXXXX........    ....XXXXXXXX....",
"....XXXXXXXX........XXXXXXXXXXXXXXXX........    ....XXXXXXXX....",
"....XXXXXXXX........XXXXXXXXXXXXXXXX........    ....XXXXXXXX....",
"....XXXXXXXX........XXXXXXXXXXXXXXXX........    ....XXXXXXXX....",
"....XXXXXXXXXXXX....XXXXXXXXXXXX....XXXX....    ........XXXX....",
"....XXXXXXXXXXXX....XXXXXXXXXXXX....XXXX....    ........XXXX....",
"....XXXXXXXXXXXX....XXXXXXXXXXXX....XXXX....    ........XXXX....",
"....XXXXXXXXXXXX....XXXXXXXXXXXX....XXXX....    ........XXXX....",
"....XXXXXXXX........XXXXXXXXXXXXXXXX....            ....XXXX....",
"....XXXXXXXX........XXXXXXXXXXXXXXXX....            ....XXXX....",
"....XXXXXXXX........XXXXXXXXXXXXXXXX....            ....XXXX....",
"....XXXXXXXX........XXXXXXXXXXXXXXXX....            ....XXXX....",
"........XXXX....    ....XXXXXXXX........    ........        ....",
"........XXXX....    ....XXXXXXXX........    ........        ....",
"........XXXX....    ....XXXXXXXX........    ........        ....",
"........XXXX....    ....XXXXXXXX........    ........        ....",
"    ............        ................    ........            ",
"    ............        ................    ........            ",
"    ............        ................    ........            ",
"    ............        ................    ........            ",
"    XXXX............            ....        XXXXXXXX....        ",
"    XXXX............            ....        XXXXXXXX....        ",
"    XXXX............            ....        XXXXXXXX....        ",
"    XXXX............            ....        XXXXXXXX....        ",
"....XXXXXXXXXXXX....    ........        XXXXXXXXXXXX....    ....",
"....XXXXXXXXXXXX....    ........        XXXXXXXXXXXX....    ....",
"....XXXXXXXXXXXX....    ........        XXXXXXXXXXXX....    ....",
"....XXXXXXXXXXXX....    ........        XXXXXXXXXXXX....    ....",
"....XXXXXXXXXXXX........    ....    XXXXXXXX....XXXX....    ....",
"....XXXXXXXXXXXX........    ....    XXXXXXXX....XXXX....    ....",
"....XXXXXXXXXXXX........    ....    XXXXXXXX....XXXX....    ....",
"....XXXXXXXXXXXX........    ....    XXXXXXXX....XXXX....    ....",
"....XXXXXXXXXXXX............    XXXXXXXX....XXXX........    ....",
"....XXXXXXXXXXXX............    XXXXXXXX....XXXX........    ....",
"....XXXXXXXXXXXX............    XXXXXXXX....XXXX........    ....",
"....XXXXXXXXXXXX............    XXXXXXXX....XXXX........    ....",
"....XXXXXXXX....XXXX....        XXXXXXXXXXXX............        ",
"....XXXXXXXX....XXXX....        XXXXXXXXXXXX............        ",
"....XXXXXXXX....XXXX....        XXXXXXXXXXXX............        ",
"....XXXXXXXX....XXXX....        XXXXXXXXXXXX............        ",
"    XXXXXXXXXXXX............    ....XXXX........    ....        ",
"    XXXXXXXXXXXX............    ....XXXX........    ....        ",
"    XXXXXXXXXXXX............    ....XXXX........    ....        ",
"    XXXXXXXXXXXX............    ....XXXX........    ....        ",
"    ....XXXX............            ........    ....            ",
"    ....XXXX............            ........    ....            ",
"    ....XXXX............            ........    ....            ",
"    ....XXXX............            ........    ....            ",
"....    ............                        ....        ........",
"....    ............                        ....        ........",
"....    ............                        ....        ........",
"....    ............                        ....        ........",
"....                    ................            ............",
"....                    ................            ............",
"....                    ................            ............",
"....                    ................            ............"
};
