/* XPM */
static char *water[] = {
/* columns rows colors chars-per-pixel */
"64 64 4 1 ",
"  c #305182",
". c #4192C3",
"X c #61D3E3",
"o c #A2FFF3",
/* pixels */
"................................................................",
"................................................................",
"................................................................",
"................................................................",
"    ....................            ....................        ",
"    ....................            ....................        ",
"    ....................            ....................        ",
"    ....................            ....................        ",
"oooo    ............    oooooooooooo    ............    oooooooo",
"oooo    ............    oooooooooooo    ............    oooooooo",
"oooo    ............    oooooooooooo    ............    oooooooo",
"oooo    ............    oooooooooooo    ............    oooooooo",
"XXXXoooo            ooooXXXXXXXXXXXXoooo            ooooXXXXXXXX",
"XXXXoooo            ooooXXXXXXXXXXXXoooo            ooooXXXXXXXX",
"XXXXoooo            ooooXXXXXXXXXXXXoooo            ooooXXXXXXXX",
"XXXXoooo            ooooXXXXXXXXXXXXoooo            ooooXXXXXXXX",
"........XXXXXXXXXXXX....................XXXXXXXXXXXX............",
"........XXXXXXXXXXXX....................XXXXXXXXXXXX............",
"........XXXXXXXXXXXX....................XXXXXXXXXXXX............",
"........XXXXXXXXXXXX....................XXXXXXXXXXXX............",
"................................................................",
"................................................................",
"................................................................",
"................................................................",
"    ....................            ....................        ",
"    ....................            ....................        ",
"    ....................            ....................        ",
"    ....................            ....................        ",
"oooo    ............    oooooooooooo    ............    oooooooo",
"oooo    ............    oooooooooooo    ............    oooooooo",
"oooo    ............    oooooooooooo    ............    oooooooo",
"oooo    ............    oooooooooooo    ............    oooooooo",
"XXXXoooo            oooo............oooo            ooooXXXXXXXX",
"XXXXoooo            oooo............oooo            ooooXXXXXXXX",
"XXXXoooo            oooo............oooo            ooooXXXXXXXX",
"XXXXoooo            oooo............oooo            ooooXXXXXXXX",
"........XXXXXXXXXXXX....................XXXXXXXXXXXX............",
"........XXXXXXXXXXXX....................XXXXXXXXXXXX............",
"........XXXXXXXXXXXX....................XXXXXXXXXXXX............",
"........XXXXXXXXXXXX....................XXXXXXXXXXXX............",
"................................................................",
"................................................................",
"................................................................",
"................................................................",
"    ....................            ....................        ",
"    ....................            ....................        ",
"    ....................            ....................        ",
"    ....................            ....................        ",
"oooo    ............    oooooooooooo    ............    oooooooo",
"oooo    ............    oooooooooooo    ............    oooooooo",
"oooo    ............    oooooooooooo    ............    oooooooo",
"oooo    ............    oooooooooooo    ............    oooooooo",
"XXXXoooo            ooooXXXXXXXXXXXXoooo            ooooXXXXXXXX",
"XXXXoooo            ooooXXXXXXXXXXXXoooo            ooooXXXXXXXX",
"XXXXoooo            ooooXXXXXXXXXXXXoooo            ooooXXXXXXXX",
"XXXXoooo            ooooXXXXXXXXXXXXoooo            ooooXXXXXXXX",
"........XXXXXXXXXXXX....................XXXXXXXXXXXX............",
"........XXXXXXXXXXXX....................XXXXXXXXXXXX............",
"........XXXXXXXXXXXX....................XXXXXXXXXXXX............",
"........XXXXXXXXXXXX....................XXXXXXXXXXXX............",
"................................................................",
"................................................................",
"................................................................",
"................................................................"
};
